<svg width="512" height="512" viewBox="0 0 512 512" fill="none" xmlns="http://www.w3.org/2000/svg">
<path fill-rule="evenodd" clip-rule="evenodd" d="M393.767 101.553V197.803L338.767 142.803V101.553C338.767 97.9066 340.216 94.4092 342.794 91.8306C345.373 89.252 348.87 87.8033 352.517 87.8033H380.017C383.664 87.8033 387.161 89.252 389.74 91.8306C392.319 94.4092 393.767 97.9066 393.767 101.553Z" fill="#27272A"/>
<path d="M91.2672 404.053V225.303H118.767V404.053C118.767 407.7 120.216 411.197 122.794 413.776C125.373 416.355 128.87 417.803 132.517 417.803H194.392V445.303H132.517C121.577 445.303 111.085 440.957 103.349 433.221C95.6131 425.486 91.2672 414.993 91.2672 404.053Z" fill="#27272A"/>
<path d="M380.017 417.803C383.664 417.803 387.161 416.355 389.74 413.776C392.319 411.197 393.767 407.7 393.767 404.053V225.303H421.267V404.053C421.267 414.993 416.921 425.486 409.185 433.221C401.449 440.957 390.957 445.303 380.017 445.303H318.142V417.803H380.017Z" fill="#27272A"/>
<path fill-rule="evenodd" clip-rule="evenodd" d="M236.825 74.0516C241.982 68.8962 248.975 66 256.267 66C263.559 66 270.553 68.8962 275.71 74.0516L458.502 256.817C461.084 259.399 462.535 262.9 462.535 266.552C462.535 270.203 461.084 273.705 458.502 276.287C455.92 278.869 452.419 280.319 448.767 280.319C445.116 280.319 441.614 278.869 439.032 276.287L256.267 93.4941L73.5024 276.287C70.9205 278.869 67.4187 280.319 63.7674 280.319C60.116 280.319 56.6143 278.869 54.0324 276.287C51.4505 273.705 50 270.203 50 266.552C50 262.9 51.4505 259.399 54.0324 256.817L236.825 74.0516Z" fill="#27272A"/>
<path d="M264.427 182.803C211.466 182.803 168.407 222.839 163.019 274.212C162.642 277.806 161.42 281.283 159.236 284.162L134.654 316.569C131.163 321.081 134.654 328.359 140.765 328.359H144.587C154.529 328.359 162.587 336.418 162.587 346.359V372.026C162.587 388.182 175.536 401.137 191.685 401.137C199.72 401.137 206.233 407.65 206.233 415.685V426.803C206.233 436.744 214.292 444.803 224.233 444.803H290.073C300.014 444.803 308.073 436.744 308.073 426.803V387.938C308.073 380.977 312.165 374.758 318.088 371.101C347.062 353.213 366.267 321.369 366.267 284.692C366.267 228.508 320.876 182.803 264.427 182.803ZM278.976 335.637C278.976 339.656 275.718 342.914 271.698 342.914H257.157C253.137 342.914 249.879 339.656 249.879 335.637C249.879 331.617 253.137 328.359 257.157 328.359H271.698C275.718 328.359 278.976 331.617 278.976 335.637ZM302.254 277.414C299.676 281.768 296.372 285.624 292.502 288.823C288.88 291.818 286.25 296.038 286.25 300.739C286.25 307.954 280.401 313.803 273.185 313.803H255.722C248.477 313.803 242.604 307.93 242.604 300.686C242.604 296.011 240.01 291.805 236.425 288.805C220.47 275.448 215.812 252.216 226.601 233.748C238.676 213.079 265.446 205.51 286.25 217.446C307.055 229.381 314.329 256.309 302.254 277.414Z" fill="#27272A"/>
</svg>
